<svg width="113" height="112" viewBox="0 0 113 112" fill="none" xmlns="http://www.w3.org/2000/svg">
<g clip-path="url(#clip0_346_4928)">
<path fill-rule="evenodd" clip-rule="evenodd" d="M68.5036 7.01174C47.4603 1.76504 26.1983 10.5642 14.6209 27.4732H26.0071V32.4732H7.62396V14H12.624V21.7477C25.7138 5.07819 47.8158 -3.29935 69.7131 2.16023C99.4508 9.57297 117.546 39.6921 110.132 69.4262C102.718 99.159 72.6009 117.253 42.8621 109.839C14.9638 102.882 -2.68915 75.9332 1.37218 48.068L6.3199 48.7891C2.62537 74.1377 18.6907 98.6585 44.0718 104.988C71.1318 111.734 98.5353 95.2693 105.281 68.2165C112.026 41.1617 95.5615 13.7565 68.5036 7.01174Z" fill="#1B1B1B"/>
<path d="M75.2927 47L47.3076 73.6667L33.6261 60.6297" stroke="#1B1B1B" stroke-width="6.66667" stroke-linecap="round"/>
</g>
<defs>
<clipPath id="clip0_346_4928">
<rect width="112" height="112" fill="white" transform="translate(0.292725)"/>
</clipPath>
</defs>
</svg>

