<svg
  width="113"
  height="112"
  viewBox="0 0 113 112"
  fill="none"
  xmlns="http://www.w3.org/2000/svg"
>
  <path
    d="M4.60314 43.0642L4.6033 43.0636C11.7462 14.4001 40.7778 -3.04387 69.4362 4.10152L69.4363 4.10155C98.1016 11.247 115.544 40.2802 108.398 68.9422C101.252 97.6022 72.2205 115.045 43.553 107.898C14.8979 100.752 -2.54637 71.7225 4.60314 43.0642Z"
    stroke="#373737"
    stroke-width="5"
  />
  <path
    d="M81.1946 48.0222C82.3094 40.5708 76.6353 36.565 68.8768 33.8928L71.3935 23.7989L65.2486 22.2677L62.7984 32.0956C61.183 31.6931 59.5238 31.3133 57.8751 30.9371L60.3428 21.0444L54.2014 19.5132L51.6829 29.6036C50.3458 29.2991 49.0331 28.9981 47.759 28.6814L47.766 28.6499L39.2916 26.5341L37.657 33.0965C37.657 33.0965 42.2162 34.1413 42.1199 34.206C44.6087 34.8273 45.0585 36.474 44.9832 37.7795L42.1164 49.2786C42.2879 49.3224 42.5102 49.3854 42.7553 49.4834C42.5505 49.4326 42.3317 49.3766 42.1059 49.3224L38.0875 65.431C37.7829 66.187 37.0112 67.3209 35.2715 66.8905C35.3327 66.9797 30.805 65.7757 30.805 65.7757L27.7544 72.8089L35.751 74.8021C37.2387 75.1749 38.6965 75.5651 40.1317 75.9326L37.5887 86.142L43.7266 87.6733L46.2451 77.5724C47.9218 78.0274 49.5495 78.4474 51.1421 78.8429L48.6324 88.8965L54.7773 90.4277L57.3203 80.2376C67.7987 82.2203 75.678 81.4206 78.9946 71.9444C81.6671 64.3145 78.8616 59.9133 73.3485 57.0433C77.3634 56.1176 80.3877 53.4769 81.1946 48.0222ZM67.1546 67.7077C65.2556 75.3376 52.4075 71.2129 48.2421 70.1787L51.6164 56.653C55.7819 57.6925 69.1393 59.7505 67.1546 67.7077ZM69.0553 47.9119C67.3226 54.8523 56.6289 51.3261 53.1601 50.4616L56.2194 38.1943C59.6883 39.0588 70.8597 40.6722 69.0553 47.9119Z"
    fill="#333333"
  />
</svg>
