<svg
  width="48"
  height="48"
  viewBox="0 0 48 48"
  fill="none"
  xmlns="http://www.w3.org/2000/svg"
>
  <path
    d="M24 38.5C21.4325 38.5 18.2184 36.9758 15.604 32.9697C13.0604 29.0722 11.1114 22.8464 11.0046 13.5735C13.4082 13.0332 15.6834 12.3349 17.8273 11.6769C17.9232 11.6475 18.0188 11.6181 18.1142 11.5888C20.5974 10.8272 22.8872 10.1373 25.0869 9.77118C27.2748 9.407 29.3227 9.37317 31.3089 9.89518C33.1882 10.3891 35.072 11.3964 36.9987 13.1943C36.9414 22.677 34.9741 29.0193 32.3959 32.9697C29.7815 36.9758 26.5675 38.5 24 38.5Z"
    stroke="white"
    stroke-width="2"
  />
  <path
    d="M30.2308 24.5C30.2308 26.8805 29.5065 29.0164 28.3593 30.5459C27.2123 32.0753 25.6659 32.9745 23.9999 32.9745C22.3339 32.9745 20.7875 32.0753 19.6405 30.5459C18.4933 29.0164 17.769 26.8805 17.769 24.5C17.769 22.1195 18.4933 19.9836 19.6405 18.4541C20.7875 16.9247 22.3339 16.0255 23.9999 16.0255C25.6659 16.0255 27.2123 16.9247 28.3593 18.4541C29.5065 19.9836 30.2308 22.1195 30.2308 24.5Z"
    stroke="white"
  />
  <path
    d="M18.3867 27.8839L22.1024 25.6776C22.7204 25.3106 23.4258 25.1169 24.1446 25.1169L24.56 25.1169C26.1807 25.1169 27.6413 26.0949 28.2586 27.5935L29.0225 29.4481"
    stroke="white"
    stroke-linecap="round"
    stroke-linejoin="round"
  />
  <path
    d="M17.9954 22.6639L21.903 20.5237C22.492 20.2011 23.1528 20.032 23.8244 20.032L26.2746 20.032C27.8821 20.0319 29.3334 20.9942 29.9591 22.475L30.039 22.6639"
    stroke="white"
    stroke-linecap="round"
    stroke-linejoin="round"
  />
  <path
    d="M17.8782 25.4206L21.9113 23.2426C22.4951 22.9273 23.1483 22.7622 23.8119 22.7622L26.1132 22.7621C27.8011 22.7621 29.3074 23.8217 29.8778 25.4103L30.0781 25.968"
    stroke="white"
    stroke-linecap="round"
    stroke-linejoin="round"
  />
  <path
    d="M19.4817 29.9173L22.8936 27.967C23.2268 27.7765 23.6039 27.6764 23.9876 27.6763V27.6763C24.8841 27.6763 25.6914 28.2192 26.0295 29.0495L27.0675 31.5988"
    stroke="white"
    stroke-linecap="round"
    stroke-linejoin="round"
  />
</svg>
