<svg
  width="113"
  height="112"
  viewBox="0 0 113 112"
  fill="none"
  xmlns="http://www.w3.org/2000/svg"
>
  <path
    fill-rule="evenodd"
    clip-rule="evenodd"
    d="M35.25 20L18.5 7.67816L13.5 4V10.2072V41V46V59V64C13.5 64.5205 13.5089 65.0388 13.5267 65.555L5.07667 98.8856L4.28711 102H7.5H35.0547C41.4935 105.813 48.9909 108 57 108C65.0091 108 72.5065 105.813 78.9453 102H106.5H109.713L108.923 98.8856L100.473 65.555C100.491 65.0388 100.5 64.5205 100.5 64V59V46V41V10.2072V4L95.5 7.67816L78.75 20L57 4L35.25 20ZM28.2261 97C22.4616 91.8523 18.0583 85.1844 15.6257 77.6216L10.7129 97H28.2261ZM103.287 97H85.7739C91.5384 91.8523 95.9417 85.1844 98.3743 77.6216L103.287 97ZM94.5 64H88.796C83.0457 64 77.5737 61.525 73.7766 57.2067L70.3334 53.2909L67 49.5L63.7039 53.3234L60.4838 57.0588C56.6845 61.4659 51.1543 64 45.3356 64H19.5C19.5 85.0216 36.3239 102 57 102C77.6761 102 94.5 85.0216 94.5 64ZM95.5 13.8853V41H18.5V13.8853L32.2872 24.0276L35.25 26.2072L38.2128 24.0276L57 10.2072L75.7872 24.0276L78.75 26.2072L81.7128 24.0276L95.5 13.8853ZM70.5805 46H95.5V59H88.796C84.4833 59 80.3793 57.1437 77.5314 53.905L70.7549 46.1983L70.5805 46ZM18.5 46H63.4158L63.213 46.2353L56.6968 53.7941C53.8473 57.0995 49.6996 59 45.3356 59H18.5V46Z"
    fill="#1B1B1B"
  />
</svg>
