<svg
  width="1350"
  height="150"
  viewBox="0 0 1350 150"
  fill="none"
  xmlns="http://www.w3.org/2000/svg"
>
  <g clip-path="url(#clip0_101_5302)">
    <circle
      cx="262.5"
      cy="37.5"
      r="36.5"
      fill="#3DFFD1"
      stroke="white"
      stroke-width="2"
    />
    <circle
      cx="937.5"
      cy="37.5"
      r="36.5"
      fill="#3DFFD1"
      stroke="white"
      stroke-width="2"
    />
    <circle
      cx="112.5"
      cy="112.5"
      r="36.5"
      fill="#3DFFD1"
      stroke="white"
      stroke-width="2"
    />
    <circle
      cx="37.5"
      cy="37.5"
      r="36.5"
      fill="#3DFFD1"
      stroke="white"
      stroke-width="2"
    />
    <circle
      cx="787.5"
      cy="112.5"
      r="36.5"
      fill="#3DFFD1"
      stroke="white"
      stroke-width="2"
    />
    <mask id="path-6-inside-1_101_5302" fill="white">
      <path
        fill-rule="evenodd"
        clip-rule="evenodd"
        d="M112.5 0C133.211 0 150 16.7893 150 37.5C150 58.2107 166.789 75 187.5 75C208.211 75 225 91.7893 225 112.5C225 133.211 208.211 150 187.5 150C166.789 150 150 133.211 150 112.5C150 91.7893 133.211 75 112.5 75C91.7893 75 75 91.7893 75 112.5C75 133.211 58.2107 150 37.5 150C16.7893 150 0 133.211 0 112.5C0 91.7893 16.7893 75 37.5 75C58.2107 75 75 58.2107 75 37.5C75 16.7893 91.7893 0 112.5 0Z"
      />
    </mask>
    <path
      fill-rule="evenodd"
      clip-rule="evenodd"
      d="M112.5 0C133.211 0 150 16.7893 150 37.5C150 58.2107 166.789 75 187.5 75C208.211 75 225 91.7893 225 112.5C225 133.211 208.211 150 187.5 150C166.789 150 150 133.211 150 112.5C150 91.7893 133.211 75 112.5 75C91.7893 75 75 91.7893 75 112.5C75 133.211 58.2107 150 37.5 150C16.7893 150 0 133.211 0 112.5C0 91.7893 16.7893 75 37.5 75C58.2107 75 75 58.2107 75 37.5C75 16.7893 91.7893 0 112.5 0Z"
      fill="#3DFFD1"
    />
    <path
      d="M152 37.5C152 15.6848 134.315 -2 112.5 -2V2C132.106 2 148 17.8939 148 37.5H152ZM187.5 73C167.894 73 152 57.1061 152 37.5H148C148 59.3152 165.685 77 187.5 77V73ZM227 112.5C227 90.6848 209.315 73 187.5 73V77C207.106 77 223 92.8939 223 112.5H227ZM187.5 152C209.315 152 227 134.315 227 112.5H223C223 132.106 207.106 148 187.5 148V152ZM148 112.5C148 134.315 165.685 152 187.5 152V148C167.894 148 152 132.106 152 112.5H148ZM112.5 77C132.106 77 148 92.8939 148 112.5H152C152 90.6848 134.315 73 112.5 73V77ZM112.5 73C90.6848 73 73 90.6848 73 112.5H77C77 92.8939 92.8939 77 112.5 77V73ZM37.5 152C59.3152 152 77 134.315 77 112.5H73C73 132.106 57.1061 148 37.5 148V152ZM-2 112.5C-2 134.315 15.6848 152 37.5 152V148C17.8939 148 2 132.106 2 112.5H-2ZM37.5 73C15.6848 73 -2 90.6848 -2 112.5H2C2 92.8939 17.8939 77 37.5 77V73ZM37.5 77C59.3152 77 77 59.3152 77 37.5H73C73 57.1061 57.1061 73 37.5 73V77ZM112.5 -2C90.6848 -2 73 15.6848 73 37.5H77C77 17.8939 92.8939 2 112.5 2V-2Z"
      fill="white"
      mask="url(#path-6-inside-1_101_5302)"
    />
    <mask id="path-8-inside-2_101_5302" fill="white">
      <path
        fill-rule="evenodd"
        clip-rule="evenodd"
        d="M187.5 0C208.211 0 225 16.7893 225 37.5C225 58.2107 241.789 75 262.5 75C283.211 75 300 58.2107 300 37.5C300 16.7893 316.789 0 337.5 0H412.5C433.211 0 450 16.7893 450 37.5C450 58.2107 433.211 75 412.5 75H337.5C316.789 75 300 91.7893 300 112.5C300 133.211 283.211 150 262.5 150C241.789 150 225 133.211 225 112.5C225 91.7893 208.211 75 187.5 75C166.789 75 150 58.2107 150 37.5C150 16.7893 166.789 0 187.5 0Z"
      />
    </mask>
    <path
      fill-rule="evenodd"
      clip-rule="evenodd"
      d="M187.5 0C208.211 0 225 16.7893 225 37.5C225 58.2107 241.789 75 262.5 75C283.211 75 300 58.2107 300 37.5C300 16.7893 316.789 0 337.5 0H412.5C433.211 0 450 16.7893 450 37.5C450 58.2107 433.211 75 412.5 75H337.5C316.789 75 300 91.7893 300 112.5C300 133.211 283.211 150 262.5 150C241.789 150 225 133.211 225 112.5C225 91.7893 208.211 75 187.5 75C166.789 75 150 58.2107 150 37.5C150 16.7893 166.789 0 187.5 0Z"
      fill="#3DFFD1"
    />
    <path
      d="M227 37.5C227 15.6848 209.315 -2 187.5 -2V2C207.106 2 223 17.8939 223 37.5H227ZM262.5 73C242.894 73 227 57.1061 227 37.5H223C223 59.3152 240.685 77 262.5 77V73ZM262.5 77C284.315 77 302 59.3152 302 37.5H298C298 57.1061 282.106 73 262.5 73V77ZM337.5 -2C315.685 -2 298 15.6848 298 37.5H302C302 17.8939 317.894 2 337.5 2V-2ZM412.5 -2H337.5V2H412.5V-2ZM452 37.5C452 15.6848 434.315 -2 412.5 -2V2C432.106 2 448 17.8939 448 37.5H452ZM412.5 77C434.315 77 452 59.3152 452 37.5H448C448 57.1061 432.106 73 412.5 73V77ZM337.5 77H412.5V73H337.5V77ZM337.5 73C315.685 73 298 90.6848 298 112.5H302C302 92.8939 317.894 77 337.5 77V73ZM262.5 152C284.315 152 302 134.315 302 112.5H298C298 132.106 282.106 148 262.5 148V152ZM223 112.5C223 134.315 240.685 152 262.5 152V148C242.894 148 227 132.106 227 112.5H223ZM187.5 77C207.106 77 223 92.8939 223 112.5H227C227 90.6848 209.315 73 187.5 73V77ZM148 37.5C148 59.3152 165.685 77 187.5 77V73C167.894 73 152 57.1061 152 37.5H148ZM187.5 -2C165.685 -2 148 15.6848 148 37.5H152C152 17.8939 167.894 2 187.5 2V-2Z"
      fill="white"
      mask="url(#path-8-inside-2_101_5302)"
    />
    <mask id="path-10-inside-3_101_5302" fill="white">
      <path
        fill-rule="evenodd"
        clip-rule="evenodd"
        d="M600 37.5C600 58.2107 583.211 75 562.5 75C541.789 75 525 91.7893 525 112.5C525 133.211 508.211 150 487.5 150C466.789 150 450 133.211 450 112.5C450 91.7893 466.789 75 487.5 75C508.211 75 525 58.2107 525 37.5C525 16.7893 541.789 0 562.5 0C583.211 0 600 16.7893 600 37.5Z"
      />
    </mask>
    <path
      fill-rule="evenodd"
      clip-rule="evenodd"
      d="M600 37.5C600 58.2107 583.211 75 562.5 75C541.789 75 525 91.7893 525 112.5C525 133.211 508.211 150 487.5 150C466.789 150 450 133.211 450 112.5C450 91.7893 466.789 75 487.5 75C508.211 75 525 58.2107 525 37.5C525 16.7893 541.789 0 562.5 0C583.211 0 600 16.7893 600 37.5Z"
      fill="#3DFFD1"
    />
    <path
      d="M562.5 77C584.315 77 602 59.3152 602 37.5H598C598 57.1061 582.106 73 562.5 73V77ZM562.5 73C540.685 73 523 90.6848 523 112.5H527C527 92.8939 542.894 77 562.5 77V73ZM487.5 152C509.315 152 527 134.315 527 112.5H523C523 132.106 507.106 148 487.5 148V152ZM448 112.5C448 134.315 465.685 152 487.5 152V148C467.894 148 452 132.106 452 112.5H448ZM487.5 73C465.685 73 448 90.6848 448 112.5H452C452 92.8939 467.894 77 487.5 77V73ZM487.5 77C509.315 77 527 59.3152 527 37.5H523C523 57.1061 507.106 73 487.5 73V77ZM562.5 -2C540.685 -2 523 15.6848 523 37.5H527C527 17.8939 542.894 2 562.5 2V-2ZM602 37.5C602 15.6848 584.315 -2 562.5 -2V2C582.106 2 598 17.8939 598 37.5H602Z"
      fill="white"
      mask="url(#path-10-inside-3_101_5302)"
    />
    <mask id="path-12-inside-4_101_5302" fill="white">
      <path
        fill-rule="evenodd"
        clip-rule="evenodd"
        d="M675 37.5C675 58.2107 658.211 75 637.5 75C616.789 75 600 91.7893 600 112.5C600 133.211 583.211 150 562.5 150C541.789 150 525 133.211 525 112.5C525 91.7893 541.789 75 562.5 75C583.211 75 600 58.2107 600 37.5C600 16.7893 616.789 0 637.5 0C658.211 0 675 16.7893 675 37.5Z"
      />
    </mask>
    <path
      fill-rule="evenodd"
      clip-rule="evenodd"
      d="M675 37.5C675 58.2107 658.211 75 637.5 75C616.789 75 600 91.7893 600 112.5C600 133.211 583.211 150 562.5 150C541.789 150 525 133.211 525 112.5C525 91.7893 541.789 75 562.5 75C583.211 75 600 58.2107 600 37.5C600 16.7893 616.789 0 637.5 0C658.211 0 675 16.7893 675 37.5Z"
      fill="#3DFFD1"
    />
    <path
      d="M637.5 77C659.315 77 677 59.3152 677 37.5H673C673 57.1061 657.106 73 637.5 73V77ZM637.5 73C615.685 73 598 90.6848 598 112.5H602C602 92.8939 617.894 77 637.5 77V73ZM562.5 152C584.315 152 602 134.315 602 112.5H598C598 132.106 582.106 148 562.5 148V152ZM523 112.5C523 134.315 540.685 152 562.5 152V148C542.894 148 527 132.106 527 112.5H523ZM562.5 73C540.685 73 523 90.6848 523 112.5H527C527 92.8939 542.894 77 562.5 77V73ZM562.5 77C584.315 77 602 59.3152 602 37.5H598C598 57.1061 582.106 73 562.5 73V77ZM637.5 -2C615.685 -2 598 15.6848 598 37.5H602C602 17.8939 617.894 2 637.5 2V-2ZM677 37.5C677 15.6848 659.315 -2 637.5 -2V2C657.106 2 673 17.8939 673 37.5H677Z"
      fill="white"
      mask="url(#path-12-inside-4_101_5302)"
    />
    <mask id="path-14-inside-5_101_5302" fill="white">
      <path
        fill-rule="evenodd"
        clip-rule="evenodd"
        d="M750 37.5C750 58.2107 733.211 75 712.5 75C691.789 75 675 91.7893 675 112.5C675 133.211 658.211 150 637.5 150C616.789 150 600 133.211 600 112.5C600 91.7893 616.789 75 637.5 75C658.211 75 675 58.2107 675 37.5C675 16.7893 691.789 0 712.5 0C733.211 0 750 16.7893 750 37.5Z"
      />
    </mask>
    <path
      fill-rule="evenodd"
      clip-rule="evenodd"
      d="M750 37.5C750 58.2107 733.211 75 712.5 75C691.789 75 675 91.7893 675 112.5C675 133.211 658.211 150 637.5 150C616.789 150 600 133.211 600 112.5C600 91.7893 616.789 75 637.5 75C658.211 75 675 58.2107 675 37.5C675 16.7893 691.789 0 712.5 0C733.211 0 750 16.7893 750 37.5Z"
      fill="#3DFFD1"
    />
    <path
      d="M712.5 77C734.315 77 752 59.3152 752 37.5H748C748 57.1061 732.106 73 712.5 73V77ZM712.5 73C690.685 73 673 90.6848 673 112.5H677C677 92.8939 692.894 77 712.5 77V73ZM637.5 152C659.315 152 677 134.315 677 112.5H673C673 132.106 657.106 148 637.5 148V152ZM598 112.5C598 134.315 615.685 152 637.5 152V148C617.894 148 602 132.106 602 112.5H598ZM637.5 73C615.685 73 598 90.6848 598 112.5H602C602 92.8939 617.894 77 637.5 77V73ZM637.5 77C659.315 77 677 59.3152 677 37.5H673C673 57.1061 657.106 73 637.5 73V77ZM712.5 -2C690.685 -2 673 15.6848 673 37.5H677C677 17.8939 692.894 2 712.5 2V-2ZM752 37.5C752 15.6848 734.315 -2 712.5 -2V2C732.106 2 748 17.8939 748 37.5H752Z"
      fill="white"
      mask="url(#path-14-inside-5_101_5302)"
    />
    <mask id="path-16-inside-6_101_5302" fill="white">
      <path
        fill-rule="evenodd"
        clip-rule="evenodd"
        d="M787.5 75C766.789 75 750 91.7893 750 112.5C750 133.211 733.211 150 712.5 150C691.789 150 675 133.211 675 112.5C675 91.7893 691.789 75 712.5 75C733.211 75 750 58.2107 750 37.5C750 16.7893 766.789 0 787.5 0C808.211 0 825 16.7893 825 37.5C825 58.2107 841.789 75 862.5 75C883.211 75 900 91.7893 900 112.5C900 133.211 883.211 150 862.5 150C841.789 150 825 133.211 825 112.5C825 91.7893 808.211 75 787.5 75Z"
      />
    </mask>
    <path
      fill-rule="evenodd"
      clip-rule="evenodd"
      d="M787.5 75C766.789 75 750 91.7893 750 112.5C750 133.211 733.211 150 712.5 150C691.789 150 675 133.211 675 112.5C675 91.7893 691.789 75 712.5 75C733.211 75 750 58.2107 750 37.5C750 16.7893 766.789 0 787.5 0C808.211 0 825 16.7893 825 37.5C825 58.2107 841.789 75 862.5 75C883.211 75 900 91.7893 900 112.5C900 133.211 883.211 150 862.5 150C841.789 150 825 133.211 825 112.5C825 91.7893 808.211 75 787.5 75Z"
      fill="#3DFFD1"
    />
    <path
      d="M752 112.5C752 92.8939 767.894 77 787.5 77V73C765.685 73 748 90.6848 748 112.5H752ZM712.5 152C734.315 152 752 134.315 752 112.5H748C748 132.106 732.106 148 712.5 148V152ZM673 112.5C673 134.315 690.685 152 712.5 152V148C692.894 148 677 132.106 677 112.5H673ZM712.5 73C690.685 73 673 90.6848 673 112.5H677C677 92.8939 692.894 77 712.5 77V73ZM748 37.5C748 57.1061 732.106 73 712.5 73V77C734.315 77 752 59.3152 752 37.5H748ZM787.5 -2C765.685 -2 748 15.6848 748 37.5H752C752 17.8939 767.894 2 787.5 2V-2ZM827 37.5C827 15.6848 809.315 -2 787.5 -2V2C807.106 2 823 17.8939 823 37.5H827ZM823 37.5C823 59.3152 840.685 77 862.5 77V73C842.894 73 827 57.1061 827 37.5H823ZM862.5 77C882.106 77 898 92.8939 898 112.5H902C902 90.6848 884.315 73 862.5 73V77ZM898 112.5C898 132.106 882.106 148 862.5 148V152C884.315 152 902 134.315 902 112.5H898ZM862.5 148C842.894 148 827 132.106 827 112.5H823C823 134.315 840.685 152 862.5 152V148ZM827 112.5C827 90.6848 809.315 73 787.5 73V77C807.106 77 823 92.8939 823 112.5H827Z"
      fill="white"
      mask="url(#path-16-inside-6_101_5302)"
    />
    <path
      d="M1021.26 75C1035.49 71.6902 1046.69 60.4875 1050 46.2557C1053.31 60.4875 1064.51 71.6902 1078.74 75C1064.51 78.3098 1053.31 89.5125 1050 103.744C1046.69 89.5125 1035.49 78.3098 1021.26 75Z"
      fill="#3DFFD1"
      stroke="white"
      stroke-width="2"
    />
    <mask id="path-19-inside-7_101_5302" fill="white">
      <path
        fill-rule="evenodd"
        clip-rule="evenodd"
        d="M1275 37.5C1275 58.2107 1258.21 75 1237.5 75C1216.79 75 1200 91.7893 1200 112.5C1200 133.211 1183.21 150 1162.5 150C1141.79 150 1125 133.211 1125 112.5C1125 91.7893 1141.79 75 1162.5 75C1183.21 75 1200 58.2107 1200 37.5C1200 16.7893 1216.79 0 1237.5 0C1258.21 0 1275 16.7893 1275 37.5Z"
      />
    </mask>
    <path
      fill-rule="evenodd"
      clip-rule="evenodd"
      d="M1275 37.5C1275 58.2107 1258.21 75 1237.5 75C1216.79 75 1200 91.7893 1200 112.5C1200 133.211 1183.21 150 1162.5 150C1141.79 150 1125 133.211 1125 112.5C1125 91.7893 1141.79 75 1162.5 75C1183.21 75 1200 58.2107 1200 37.5C1200 16.7893 1216.79 0 1237.5 0C1258.21 0 1275 16.7893 1275 37.5Z"
      fill="#3DFFD1"
    />
    <path
      d="M1237.5 77C1259.32 77 1277 59.3152 1277 37.5H1273C1273 57.1061 1257.11 73 1237.5 73V77ZM1237.5 73C1215.68 73 1198 90.6848 1198 112.5H1202C1202 92.8939 1217.89 77 1237.5 77V73ZM1162.5 152C1184.32 152 1202 134.315 1202 112.5H1198C1198 132.106 1182.11 148 1162.5 148V152ZM1123 112.5C1123 134.315 1140.68 152 1162.5 152V148C1142.89 148 1127 132.106 1127 112.5H1123ZM1162.5 73C1140.68 73 1123 90.6848 1123 112.5H1127C1127 92.8939 1142.89 77 1162.5 77V73ZM1162.5 77C1184.32 77 1202 59.3152 1202 37.5H1198C1198 57.1061 1182.11 73 1162.5 73V77ZM1237.5 -2C1215.68 -2 1198 15.6848 1198 37.5H1202C1202 17.8939 1217.89 2 1237.5 2V-2ZM1277 37.5C1277 15.6848 1259.32 -2 1237.5 -2V2C1257.11 2 1273 17.8939 1273 37.5H1277Z"
      fill="white"
      mask="url(#path-19-inside-7_101_5302)"
    />
    <mask id="path-21-inside-8_101_5302" fill="white">
      <path
        fill-rule="evenodd"
        clip-rule="evenodd"
        d="M1350 37.5C1350 58.2107 1333.21 75 1312.5 75C1291.79 75 1275 91.7893 1275 112.5C1275 133.211 1258.21 150 1237.5 150C1216.79 150 1200 133.211 1200 112.5C1200 91.7893 1216.79 75 1237.5 75C1258.21 75 1275 58.2107 1275 37.5C1275 16.7893 1291.79 0 1312.5 0C1333.21 0 1350 16.7893 1350 37.5Z"
      />
    </mask>
    <path
      fill-rule="evenodd"
      clip-rule="evenodd"
      d="M1350 37.5C1350 58.2107 1333.21 75 1312.5 75C1291.79 75 1275 91.7893 1275 112.5C1275 133.211 1258.21 150 1237.5 150C1216.79 150 1200 133.211 1200 112.5C1200 91.7893 1216.79 75 1237.5 75C1258.21 75 1275 58.2107 1275 37.5C1275 16.7893 1291.79 0 1312.5 0C1333.21 0 1350 16.7893 1350 37.5Z"
      fill="#3DFFD1"
    />
    <path
      d="M1312.5 77C1334.32 77 1352 59.3152 1352 37.5H1348C1348 57.1061 1332.11 73 1312.5 73V77ZM1312.5 73C1290.68 73 1273 90.6848 1273 112.5H1277C1277 92.8939 1292.89 77 1312.5 77V73ZM1237.5 152C1259.32 152 1277 134.315 1277 112.5H1273C1273 132.106 1257.11 148 1237.5 148V152ZM1198 112.5C1198 134.315 1215.68 152 1237.5 152V148C1217.89 148 1202 132.106 1202 112.5H1198ZM1237.5 73C1215.68 73 1198 90.6848 1198 112.5H1202C1202 92.8939 1217.89 77 1237.5 77V73ZM1237.5 77C1259.32 77 1277 59.3152 1277 37.5H1273C1273 57.1061 1257.11 73 1237.5 73V77ZM1312.5 -2C1290.68 -2 1273 15.6848 1273 37.5H1277C1277 17.8939 1292.89 2 1312.5 2V-2ZM1352 37.5C1352 15.6848 1334.32 -2 1312.5 -2V2C1332.11 2 1348 17.8939 1348 37.5H1352Z"
      fill="white"
      mask="url(#path-21-inside-8_101_5302)"
    />
    <mask id="path-23-inside-9_101_5302" fill="white">
      <path
        fill-rule="evenodd"
        clip-rule="evenodd"
        d="M525 37.5C525 58.2107 508.211 75 487.5 75C466.789 75 450 91.7893 450 112.5C450 133.211 433.211 150 412.5 150H337.5C316.789 150 300 133.211 300 112.5C300 91.7893 316.789 75 337.5 75H412.5C433.211 75 450 58.2107 450 37.5C450 16.7893 466.789 0 487.5 0C508.211 0 525 16.7893 525 37.5Z"
      />
    </mask>
    <path
      fill-rule="evenodd"
      clip-rule="evenodd"
      d="M525 37.5C525 58.2107 508.211 75 487.5 75C466.789 75 450 91.7893 450 112.5C450 133.211 433.211 150 412.5 150H337.5C316.789 150 300 133.211 300 112.5C300 91.7893 316.789 75 337.5 75H412.5C433.211 75 450 58.2107 450 37.5C450 16.7893 466.789 0 487.5 0C508.211 0 525 16.7893 525 37.5Z"
      fill="#3DFFD1"
    />
    <path
      d="M487.5 77C509.315 77 527 59.3152 527 37.5H523C523 57.1061 507.106 73 487.5 73V77ZM452 112.5C452 92.8939 467.894 77 487.5 77V73C465.685 73 448 90.6848 448 112.5H452ZM412.5 152C434.315 152 452 134.315 452 112.5H448C448 132.106 432.106 148 412.5 148V152ZM412.5 148H337.5V152H412.5V148ZM298 112.5C298 134.315 315.685 152 337.5 152V148C317.894 148 302 132.106 302 112.5H298ZM337.5 73C315.685 73 298 90.6848 298 112.5H302C302 92.8939 317.894 77 337.5 77V73ZM337.5 77H412.5V73H337.5V77ZM448 37.5C448 57.1061 432.106 73 412.5 73V77C434.315 77 452 59.3152 452 37.5H448ZM487.5 -2C465.685 -2 448 15.6848 448 37.5H452C452 17.8939 467.894 2 487.5 2V-2ZM527 37.5C527 15.6848 509.315 -2 487.5 -2V2C507.106 2 523 17.8939 523 37.5H527Z"
      fill="white"
      mask="url(#path-23-inside-9_101_5302)"
    />
    <mask id="path-25-inside-10_101_5302" fill="white">
      <path
        fill-rule="evenodd"
        clip-rule="evenodd"
        d="M862.5 75C841.789 75 825 58.2107 825 37.5C825 16.7893 841.789 0 862.5 0C883.211 0 900 16.7893 900 37.5C900 58.2107 916.789 75 937.5 75C958.211 75 975 58.2107 975 37.5C975 16.7893 991.789 0 1012.5 0H1087.5C1108.21 0 1125 16.7893 1125 37.5C1125 58.2107 1108.21 75 1087.5 75H1012.5C991.789 75 975 91.7893 975 112.5C975 133.211 958.211 150 937.5 150C916.789 150 900 133.211 900 112.5C900 91.7893 883.211 75 862.5 75Z"
      />
    </mask>
    <path
      fill-rule="evenodd"
      clip-rule="evenodd"
      d="M862.5 75C841.789 75 825 58.2107 825 37.5C825 16.7893 841.789 0 862.5 0C883.211 0 900 16.7893 900 37.5C900 58.2107 916.789 75 937.5 75C958.211 75 975 58.2107 975 37.5C975 16.7893 991.789 0 1012.5 0H1087.5C1108.21 0 1125 16.7893 1125 37.5C1125 58.2107 1108.21 75 1087.5 75H1012.5C991.789 75 975 91.7893 975 112.5C975 133.211 958.211 150 937.5 150C916.789 150 900 133.211 900 112.5C900 91.7893 883.211 75 862.5 75Z"
      fill="#3DFFD1"
    />
    <path
      d="M823 37.5C823 59.3152 840.685 77 862.5 77V73C842.894 73 827 57.1061 827 37.5H823ZM862.5 -2C840.685 -2 823 15.6848 823 37.5H827C827 17.8939 842.894 2 862.5 2V-2ZM902 37.5C902 15.6848 884.315 -2 862.5 -2V2C882.106 2 898 17.8939 898 37.5H902ZM937.5 73C917.894 73 902 57.1061 902 37.5H898C898 59.3152 915.685 77 937.5 77V73ZM973 37.5C973 57.1061 957.106 73 937.5 73V77C959.315 77 977 59.3152 977 37.5H973ZM1012.5 -2C990.685 -2 973 15.6848 973 37.5H977C977 17.8939 992.894 2 1012.5 2V-2ZM1012.5 2H1087.5V-2H1012.5V2ZM1127 37.5C1127 15.6848 1109.32 -2 1087.5 -2V2C1107.11 2 1123 17.8939 1123 37.5H1127ZM1087.5 77C1109.32 77 1127 59.3152 1127 37.5H1123C1123 57.1061 1107.11 73 1087.5 73V77ZM1087.5 73H1012.5V77H1087.5V73ZM977 112.5C977 92.8939 992.894 77 1012.5 77V73C990.685 73 973 90.6848 973 112.5H977ZM937.5 152C959.315 152 977 134.315 977 112.5H973C973 132.106 957.106 148 937.5 148V152ZM898 112.5C898 134.315 915.685 152 937.5 152V148C917.894 148 902 132.106 902 112.5H898ZM862.5 77C882.106 77 898 92.8939 898 112.5H902C902 90.6848 884.315 73 862.5 73V77Z"
      fill="white"
      mask="url(#path-25-inside-10_101_5302)"
    />
    <mask id="path-27-inside-11_101_5302" fill="white">
      <path
        fill-rule="evenodd"
        clip-rule="evenodd"
        d="M1200 37.5C1200 58.2107 1183.21 75 1162.5 75C1141.79 75 1125 91.7893 1125 112.5C1125 133.211 1108.21 150 1087.5 150H1012.5C991.789 150 975 133.211 975 112.5C975 91.7893 991.789 75 1012.5 75H1087.5C1108.21 75 1125 58.2107 1125 37.5C1125 16.7893 1141.79 0 1162.5 0C1183.21 0 1200 16.7893 1200 37.5Z"
      />
    </mask>
    <path
      fill-rule="evenodd"
      clip-rule="evenodd"
      d="M1200 37.5C1200 58.2107 1183.21 75 1162.5 75C1141.79 75 1125 91.7893 1125 112.5C1125 133.211 1108.21 150 1087.5 150H1012.5C991.789 150 975 133.211 975 112.5C975 91.7893 991.789 75 1012.5 75H1087.5C1108.21 75 1125 58.2107 1125 37.5C1125 16.7893 1141.79 0 1162.5 0C1183.21 0 1200 16.7893 1200 37.5Z"
      fill="#3DFFD1"
    />
    <path
      d="M1162.5 77C1184.32 77 1202 59.3152 1202 37.5H1198C1198 57.1061 1182.11 73 1162.5 73V77ZM1127 112.5C1127 92.8939 1142.89 77 1162.5 77V73C1140.68 73 1123 90.6848 1123 112.5H1127ZM1087.5 152C1109.32 152 1127 134.315 1127 112.5H1123C1123 132.106 1107.11 148 1087.5 148V152ZM1087.5 148H1012.5V152H1087.5V148ZM973 112.5C973 134.315 990.685 152 1012.5 152V148C992.894 148 977 132.106 977 112.5H973ZM1012.5 73C990.685 73 973 90.6848 973 112.5H977C977 92.8939 992.894 77 1012.5 77V73ZM1012.5 77H1087.5V73H1012.5V77ZM1123 37.5C1123 57.1061 1107.11 73 1087.5 73V77C1109.32 77 1127 59.3152 1127 37.5H1123ZM1162.5 -2C1140.68 -2 1123 15.6848 1123 37.5H1127C1127 17.8939 1142.89 2 1162.5 2V-2ZM1202 37.5C1202 15.6848 1184.32 -2 1162.5 -2V2C1182.11 2 1198 17.8939 1198 37.5H1202Z"
      fill="white"
      mask="url(#path-27-inside-11_101_5302)"
    />
  </g>
  <defs>
    <clipPath id="clip0_101_5302">
      <rect width="1350" height="150" fill="white" />
    </clipPath>
  </defs>
</svg>
