<svg
  width="153"
  height="40"
  viewBox="0 0 153 40"
  fill="none"
  xmlns="http://www.w3.org/2000/svg"
>
  <g clip-path="url(#clip0_178_204)">
    <path
      d="M138.845 40C136.748 40 134.726 39.7946 132.778 39.3838C130.831 38.9729 129.127 38.4314 127.667 37.7591L129.408 31.8208C132.741 33.1653 135.849 33.8376 138.732 33.8376C140.455 33.8376 141.841 33.5761 142.889 33.0533C143.975 32.493 144.518 31.6527 144.518 30.5322C144.518 29.5985 144.012 28.8329 143.001 28.2353C142.028 27.6377 140.474 26.9655 138.339 26.2185C136.242 25.4715 134.538 24.7806 133.228 24.1457C131.917 23.4734 130.775 22.5771 129.801 21.4566C128.865 20.2988 128.397 18.8796 128.397 17.1989C128.397 13.9123 129.595 11.4286 131.992 9.74793C134.389 8.02991 137.647 7.1709 141.766 7.1709C143.488 7.1709 145.229 7.35764 146.989 7.73112C148.749 8.06726 150.303 8.55278 151.652 9.18771L149.854 15.1821C147.158 13.987 144.537 13.3894 141.99 13.3894C140.38 13.3894 139.126 13.6321 138.227 14.1177C137.328 14.5659 136.879 15.2568 136.879 16.1905C136.879 17.1242 137.347 17.8712 138.283 18.4314C139.219 18.9543 140.698 19.5518 142.721 20.2241C144.818 20.8964 146.559 21.5687 147.944 22.2409C149.33 22.9132 150.509 23.8843 151.483 25.1541C152.494 26.4239 153 28.0299 153 29.972C153 33.1093 151.783 35.5743 149.349 37.367C146.915 39.1223 143.413 40 138.845 40Z"
      fill="#1B1B1B"
    />
    <path
      d="M125.222 37.423C124.099 38.2073 122.826 38.7862 121.403 39.1597C119.98 39.5331 118.576 39.7199 117.19 39.7199C113.408 39.7199 110.599 38.8609 108.765 37.1429C106.93 35.3875 106.012 32.8852 106.012 29.6359V14.0616H101.238V10.4202L107.023 8.23529L109.439 0H114.606V7.89916H123.593V14.0616H114.606V27.6751C114.606 29.7666 114.925 31.2605 115.561 32.1569C116.235 33.0532 117.265 33.5014 118.65 33.5014C120.336 33.5014 122.058 33.0159 123.818 32.0448L125.222 37.423Z"
      fill="#1B1B1B"
    />
    <path
      d="M84.8723 40C81.3523 40 78.3753 39.2904 75.9412 37.8712C73.5072 36.4519 71.691 34.5098 70.4927 32.0448C69.2945 29.5799 68.6953 26.7787 68.6953 23.6415C68.6953 20.4295 69.2945 17.5911 70.4927 15.1261C71.691 12.6237 73.5072 10.6816 75.9412 9.29975C78.3753 7.88052 81.3523 7.1709 84.8723 7.1709C88.3922 7.1709 91.3692 7.91786 93.8033 9.41179C96.2373 10.9057 98.0535 12.9039 99.2518 15.4062C100.487 17.8712 101.105 20.5789 101.105 23.5294C101.105 26.48 100.487 29.2064 99.2518 31.7087C98.0535 34.211 96.2373 36.2279 93.8033 37.7591C91.3692 39.2531 88.3922 40 84.8723 40ZM84.9284 33.8376C89.9088 33.8376 92.399 30.4202 92.399 23.5855C92.399 16.7881 89.9088 13.3894 84.9284 13.3894C79.9106 13.3894 77.4017 16.7881 77.4017 23.5855C77.4017 30.4202 79.9106 33.8376 84.9284 33.8376Z"
      fill="#1B1B1B"
    />
    <path
      d="M54.6985 7.1709C58.6678 7.1709 61.4014 8.21665 62.8993 10.3082C64.3971 12.3623 65.1461 15.3688 65.1461 19.3278V39.2717H56.5521V20.3362C56.5521 17.7965 56.215 16.0224 55.541 15.014C54.9044 14.0056 53.7061 13.5014 51.9461 13.5014C49.8491 13.5014 47.6772 14.2857 45.4304 15.8544V39.2717H36.8364V7.89919H43.2398L44.1947 10.6443C47.827 8.32869 51.3283 7.1709 54.6985 7.1709Z"
      fill="#1B1B1B"
    />
    <path
      d="M24.0407 39.2718L8.87485 19.5519V39.2718H0V1.17651H8.87485V18.1513L22.9173 1.17651H33.1403L17.525 18.7115L34.7692 39.2718H24.0407Z"
      fill="#1B1B1B"
    />
  </g>
  <defs>
    <clipPath id="clip0_178_204">
      <rect width="153" height="40" fill="white" />
    </clipPath>
  </defs>
</svg>
