<svg width="320" height="48" viewBox="0 0 320 48" fill="none" xmlns="http://www.w3.org/2000/svg">
<g clip-path="url(#clip0_347_526)">
<path d="M24.289 26C26.8556 26.5 28.8056 27.5333 30.139 29.1C31.5056 30.6333 32.189 32.5167 32.189 34.75C32.189 37.75 31.0056 40.05 28.639 41.65C26.2723 43.2167 22.8056 44 18.239 44H5.18897V10H18.239C22.3723 10 25.4723 10.6833 27.539 12.05C29.639 13.4167 30.689 15.5333 30.689 18.4C30.689 20.2333 30.139 21.8333 29.039 23.2C27.939 24.5333 26.3556 25.4667 24.289 26ZM13.089 15.55V23.25H18.239C21.2723 23.25 22.789 21.95 22.789 19.35C22.789 17.9833 22.4056 17.0167 21.639 16.45C20.8723 15.85 19.739 15.55 18.239 15.55H13.089ZM18.239 38.45C20.1723 38.45 21.6556 38.05 22.689 37.25C23.7556 36.45 24.289 35.25 24.289 33.65C24.289 30.4167 22.2723 28.8 18.239 28.8H13.089V38.45H18.239ZM39.8269 11.1C38.5935 11.1 37.5435 10.6667 36.6769 9.8C35.8102 8.93333 35.3769 7.88333 35.3769 6.65C35.3769 5.41666 35.8102 4.36666 36.6769 3.5C37.5435 2.63333 38.5935 2.2 39.8269 2.2C41.0602 2.2 42.1102 2.63333 42.9769 3.5C43.8769 4.36666 44.3269 5.41666 44.3269 6.65C44.3269 7.88333 43.8769 8.93333 42.9769 9.8C42.1102 10.6667 41.0602 11.1 39.8269 11.1ZM36.0269 16H43.6769V44H36.0269V16ZM67.739 42.35C66.739 43.05 65.6056 43.5667 64.339 43.9C63.0723 44.2333 61.8223 44.4 60.589 44.4C57.2223 44.4 54.7223 43.6333 53.089 42.1C51.4556 40.5333 50.639 38.3 50.639 35.4V21.5H46.389V18.25L51.539 16.3L53.689 8.95H58.289V16H66.289V21.5H58.289V33.65C58.289 35.5167 58.5723 36.85 59.139 37.65C59.739 38.45 60.6556 38.85 61.889 38.85C63.389 38.85 64.9223 38.4167 66.489 37.55L67.739 42.35ZM82.9253 44.65C79.7253 44.65 77.042 44.0167 74.8753 42.75C72.742 41.45 71.142 39.7167 70.0753 37.55C69.042 35.35 68.5253 32.85 68.5253 30.05C68.5253 27.35 69.0586 24.9 70.1253 22.7C71.192 20.4667 72.8586 18.6833 75.1253 17.35C77.392 16.0167 80.242 15.35 83.6753 15.35C85.0753 15.35 86.5253 15.5333 88.0253 15.9C89.5253 16.2667 90.7253 16.75 91.6253 17.35L89.9753 22.65C87.9753 21.4833 85.8753 20.9 83.6753 20.9C81.3086 20.9 79.4753 21.7 78.1753 23.3C76.9086 24.8667 76.2753 27.1 76.2753 30C76.2753 32.9 76.8586 35.15 78.0253 36.75C79.192 38.35 80.8253 39.15 82.9253 39.15C84.3253 39.15 85.592 38.9167 86.7253 38.45C87.892 37.95 89.142 37.25 90.4753 36.35L92.6753 41.2C91.4753 42.2 90.0253 43.0333 88.3253 43.7C86.6586 44.3333 84.8586 44.65 82.9253 44.65ZM107.671 44.65C104.538 44.65 101.888 44.0167 99.7214 42.75C97.5547 41.4833 95.9381 39.75 94.8714 37.55C93.8047 35.35 93.2714 32.85 93.2714 30.05C93.2714 27.1833 93.8047 24.65 94.8714 22.45C95.9381 20.2167 97.5547 18.4833 99.7214 17.25C101.888 15.9833 104.538 15.35 107.671 15.35C110.805 15.35 113.455 16.0167 115.621 17.35C117.788 18.6833 119.405 20.4667 120.471 22.7C121.571 24.9 122.121 27.3167 122.121 29.95C122.121 32.5833 121.571 35.0167 120.471 37.25C119.405 39.4833 117.788 41.2833 115.621 42.65C113.455 43.9833 110.805 44.65 107.671 44.65ZM107.721 39.15C112.155 39.15 114.371 36.1 114.371 30C114.371 23.9333 112.155 20.9 107.721 20.9C103.255 20.9 101.021 23.9333 101.021 30C101.021 36.1 103.255 39.15 107.721 39.15ZM129.729 11.1C128.496 11.1 127.446 10.6667 126.579 9.8C125.713 8.93333 125.279 7.88333 125.279 6.65C125.279 5.41666 125.713 4.36666 126.579 3.5C127.446 2.63333 128.496 2.2 129.729 2.2C130.963 2.2 132.013 2.63333 132.879 3.5C133.779 4.36666 134.229 5.41666 134.229 6.65C134.229 7.88333 133.779 8.93333 132.879 9.8C132.013 10.6667 130.963 11.1 129.729 11.1ZM125.929 16H133.579V44H125.929V16ZM155.441 15.35C158.975 15.35 161.408 16.2833 162.741 18.15C164.075 19.9833 164.741 22.6667 164.741 26.2V44H157.091V27.1C157.091 24.8333 156.791 23.25 156.191 22.35C155.625 21.45 154.558 21 152.991 21C151.125 21 149.191 21.7 147.191 23.1V44H139.541V16H145.241L146.091 18.45C149.325 16.3833 152.441 15.35 155.441 15.35ZM202.341 44L188.841 26.4V44H180.941V10H188.841V25.15L201.341 10H210.441L196.541 25.65L211.891 44H202.341ZM230.021 15.35C233.555 15.35 235.988 16.2833 237.321 18.15C238.655 19.9833 239.321 22.6667 239.321 26.2V44H231.671V27.1C231.671 24.8333 231.371 23.25 230.771 22.35C230.205 21.45 229.138 21 227.571 21C225.705 21 223.771 21.7 221.771 23.1V44H214.121V16H219.821L220.671 18.45C223.905 16.3833 227.021 15.35 230.021 15.35ZM257.271 44.65C254.138 44.65 251.488 44.0167 249.321 42.75C247.154 41.4833 245.538 39.75 244.471 37.55C243.404 35.35 242.871 32.85 242.871 30.05C242.871 27.1833 243.404 24.65 244.471 22.45C245.538 20.2167 247.154 18.4833 249.321 17.25C251.488 15.9833 254.138 15.35 257.271 15.35C260.404 15.35 263.054 16.0167 265.221 17.35C267.388 18.6833 269.004 20.4667 270.071 22.7C271.171 24.9 271.721 27.3167 271.721 29.95C271.721 32.5833 271.171 35.0167 270.071 37.25C269.004 39.4833 267.388 41.2833 265.221 42.65C263.054 43.9833 260.404 44.65 257.271 44.65ZM257.321 39.15C261.754 39.15 263.971 36.1 263.971 30C263.971 23.9333 261.754 20.9 257.321 20.9C252.854 20.9 250.621 23.9333 250.621 30C250.621 36.1 252.854 39.15 257.321 39.15ZM293.579 42.35C292.579 43.05 291.445 43.5667 290.179 43.9C288.912 44.2333 287.662 44.4 286.429 44.4C283.062 44.4 280.562 43.6333 278.929 42.1C277.295 40.5333 276.479 38.3 276.479 35.4V21.5H272.229V18.25L277.379 16.3L279.529 8.95H284.129V16H292.129V21.5H284.129V33.65C284.129 35.5167 284.412 36.85 284.979 37.65C285.579 38.45 286.495 38.85 287.729 38.85C289.229 38.85 290.762 38.4167 292.329 37.55L293.579 42.35ZM304.315 44.65C302.448 44.65 300.648 44.4667 298.915 44.1C297.182 43.7333 295.665 43.25 294.365 42.65L295.915 37.35C298.882 38.55 301.648 39.15 304.215 39.15C305.748 39.15 306.982 38.9167 307.915 38.45C308.882 37.95 309.365 37.2 309.365 36.2C309.365 35.3667 308.915 34.6833 308.015 34.15C307.148 33.6167 305.765 33.0167 303.865 32.35C301.998 31.6833 300.482 31.0667 299.315 30.5C298.148 29.9 297.132 29.1 296.265 28.1C295.432 27.0667 295.015 25.8 295.015 24.3C295.015 21.3667 296.082 19.15 298.215 17.65C300.348 16.1167 303.248 15.35 306.915 15.35C308.448 15.35 309.998 15.5167 311.565 15.85C313.132 16.15 314.515 16.5833 315.715 17.15L314.115 22.5C311.715 21.4333 309.382 20.9 307.115 20.9C305.682 20.9 304.565 21.1167 303.765 21.55C302.965 21.95 302.565 22.5667 302.565 23.4C302.565 24.2333 302.982 24.9 303.815 25.4C304.648 25.8667 305.965 26.4 307.765 27C309.632 27.6 311.182 28.2 312.415 28.8C313.648 29.4 314.698 30.2667 315.565 31.4C316.465 32.5333 316.915 33.9667 316.915 35.7C316.915 38.5 315.832 40.7 313.665 42.3C311.498 43.8667 308.382 44.65 304.315 44.65Z" fill="#1B1B1B"/>
</g>
<defs>
<clipPath id="clip0_347_526">
<rect width="320" height="48" fill="white"/>
</clipPath>
</defs>
</svg>

