<svg
  width="113"
  height="112"
  viewBox="0 0 113 112"
  fill="none"
  xmlns="http://www.w3.org/2000/svg"
>
  <path
    d="M37.5119 4.69847V17.0124C37.5119 17.9504 38.2717 18.7109 39.2098 18.7109H53.2228C62.5644 18.7109 75.3029 27.2032 75.3029 41.2156V54.8034C75.3029 49.2833 65.1121 41.2156 60.4413 41.2156H39.2071C38.269 41.2156 37.5119 41.976 37.5119 42.9141V54.8034C37.5119 55.7414 36.7515 56.5019 35.8135 56.5019H34.3939C33.9435 56.5019 33.5114 56.3229 33.1929 56.0044L8.14045 30.9519C7.47716 30.2886 7.47716 29.2132 8.14045 28.5499L33.1929 3.49747C33.5114 3.17895 33.9435 3 34.3939 3H35.8135C36.7515 3 37.5119 3.76043 37.5119 4.69847Z"
    stroke="#1B1B1B"
    stroke-width="5"
    stroke-linejoin="round"
  />
  <path
    d="M38.9409 72.2848L50.788 81.2988C52.0545 82.2625 52.7896 83.7622 52.8336 85.3531C53.1211 95.7293 55.1135 106.735 57.4688 108.305C59.2252 109.476 68.0446 104.215 73.9822 100.292C75.5859 99.2324 77.6418 99.1173 79.3311 100.034L87.2352 104.325C89.5983 105.608 92.5669 104.84 93.8602 102.482C105.383 81.4795 107.182 56.7825 106.31 41.9888C106.145 39.1983 103.634 37.1998 100.883 37.6976C79.6989 41.5316 54.0796 54.9987 39.2698 64.1211C36.2935 65.9544 36.159 70.1681 38.9409 72.2848Z"
    fill="#1B1B1B"
  />
  <path
    d="M58.2188 108L64.7277 83.4105C64.9392 82.6118 65.3639 81.8856 65.9565 81.3097L91.9998 56"
    stroke="white"
    stroke-width="5"
    stroke-linecap="round"
  />
</svg>
