<svg
  width="48"
  height="48"
  viewBox="0 0 48 48"
  fill="none"
  xmlns="http://www.w3.org/2000/svg"
>
  <g clip-path="url(#clip0_101_5765)">
    <path
      fill-rule="evenodd"
      clip-rule="evenodd"
      d="M18.2738 32.4188C19.0548 33.1998 20.3212 33.1998 21.1022 32.4188L35.9855 17.5355C36.7665 16.7545 36.7665 15.4882 35.9855 14.7071L33.8641 12.5858C33.0831 11.8047 31.8168 11.8047 31.0357 12.5858L16.1525 27.469C15.3714 28.2501 15.3714 29.5164 16.1525 30.2975L18.2738 32.4188ZM12.3727 36.0871C12.7264 36.4407 13.2543 36.5544 13.7222 36.3777L16.322 35.3957C17.6808 34.8824 18.0566 33.1376 17.0295 32.1105L16.4023 31.4834C15.3904 30.4714 13.674 30.8188 13.1352 32.1447L12.0936 34.7083C11.9011 35.1822 12.011 35.7253 12.3727 36.0871Z"
      fill="white"
    />
  </g>
  <defs>
    <clipPath id="clip0_101_5765">
      <rect width="48" height="48" fill="white" />
    </clipPath>
  </defs>
</svg>
