<svg width="64" height="65" viewBox="0 0 64 65" fill="none" xmlns="http://www.w3.org/2000/svg">
<rect x="4" y="7.56787" width="55" height="50" rx="8" fill="white"/>
<path d="M22.875 27.5374C22.9844 27.4749 23.1172 27.4436 23.2734 27.4436C23.5 27.4436 23.6914 27.5256 23.8477 27.6897C24.0117 27.8459 24.0938 28.0374 24.0938 28.2639C24.0938 28.592 23.9453 28.8342 23.6484 28.9905L17.2148 32.4006L23.6484 35.9631C23.7656 36.0256 23.8672 36.1311 23.9531 36.2795C24.0391 36.4202 24.082 36.5569 24.082 36.6897C24.082 36.9163 24 37.1116 23.8359 37.2756C23.6797 37.4319 23.4883 37.51 23.2617 37.51C23.1211 37.51 22.9883 37.4749 22.8633 37.4045L15.0938 33.1038C14.8125 32.9475 14.6719 32.7092 14.6719 32.3889C14.6719 32.2561 14.7109 32.1194 14.7891 31.9788C14.875 31.8303 14.9805 31.7249 15.1055 31.6624L22.875 27.5374ZM35.2847 22.7795C35.5581 22.9045 35.7261 23.0881 35.7886 23.3303C35.8589 23.5647 35.8511 23.7795 35.7652 23.9749C34.4683 26.592 33.1675 29.2092 31.8628 31.8264C30.5659 34.4436 29.2652 37.0608 27.9605 39.678C27.8745 39.8655 27.7183 39.9866 27.4917 40.0413C27.2652 40.1038 27.0737 40.0999 26.9175 40.0295C26.6675 39.9202 26.4917 39.7522 26.3902 39.5256C26.2964 39.2991 26.3042 39.0686 26.4136 38.8342L34.1714 23.2483C34.2808 23.0452 34.437 22.8928 34.6402 22.7913C34.8511 22.6819 35.0659 22.678 35.2847 22.7795ZM39.3037 27.5374L47.0733 31.6624C47.1983 31.7249 47.2998 31.8303 47.378 31.9788C47.4639 32.1194 47.5069 32.2561 47.5069 32.3889C47.5069 32.7092 47.3662 32.9475 47.085 33.1038L39.3155 37.4045C39.1905 37.4749 39.0577 37.51 38.917 37.51C38.6905 37.51 38.4952 37.4319 38.3311 37.2756C38.1748 37.1116 38.0967 36.9163 38.0967 36.6897C38.0967 36.5569 38.1397 36.4202 38.2256 36.2795C38.3116 36.1311 38.4131 36.0256 38.5303 35.9631L44.9639 32.4006L38.5303 28.9905C38.2334 28.8342 38.085 28.592 38.085 28.2639C38.085 28.0374 38.1631 27.8459 38.3194 27.6897C38.4834 27.5256 38.6787 27.4436 38.9053 27.4436C39.0616 27.4436 39.1944 27.4749 39.3037 27.5374Z" fill="#8B8B8B"/>
</svg>
