<svg
  width="48"
  height="48"
  viewBox="0 0 48 48"
  fill="none"
  xmlns="http://www.w3.org/2000/svg"
>
  <g clip-path="url(#clip0_111_2086)">
    <g clip-path="url(#clip1_111_2086)">
      <path
        d="M24 48C37.2548 48 48 37.2548 48 24C48 10.7452 37.2548 0 24 0C10.7452 0 0 10.7452 0 24C0 37.2548 10.7452 48 24 48Z"
        fill="url(#paint0_linear_111_2086)"
      />
      <path
        d="M19.5999 35C18.8223 35 18.9545 34.7064 18.6863 33.966L16.3999 26.4414L33.9999 16"
        fill="#CBD9E8"
      />
      <path
        d="M19.6001 34.9999C20.2001 34.9999 20.4651 34.7255 20.8001 34.3999L24.0001 31.2883L20.0085 28.8813"
        fill="#AFC9DE"
      />
      <path
        d="M20.008 28.882L29.68 36.0278C30.7838 36.6368 31.5802 36.3214 31.8552 35.0032L35.7922 16.4506C36.1952 14.8346 35.1762 14.1014 34.1202 14.5808L11.0022 23.495C9.42416 24.128 9.43356 25.0084 10.7146 25.4006L16.6472 27.2524L30.3818 18.5874C31.0302 18.1942 31.6254 18.4054 31.137 18.839"
        fill="white"
      />
    </g>
  </g>
  <defs>
    <linearGradient
      id="paint0_linear_111_2086"
      x1="24"
      y1="0"
      x2="24"
      y2="47.644"
      gradientUnits="userSpaceOnUse"
    >
      <stop stop-color="#2AABEE" />
      <stop offset="1" stop-color="#229ED9" />
    </linearGradient>
    <clipPath id="clip0_111_2086">
      <rect width="48" height="48" fill="white" />
    </clipPath>
    <clipPath id="clip1_111_2086">
      <rect width="48" height="48" fill="white" />
    </clipPath>
  </defs>
</svg>
